<svg width="96" height="96" viewBox="0 0 96 96" fill="none" xmlns="http://www.w3.org/2000/svg">
<circle r="48" transform="matrix(1 0 0 -1 48 48)" fill="#95AAAF" fill-opacity="0.3"/>
<path d="M55 43H51V41H55C55.551 41 56 40.551 56 40V33H58V40C58 41.654 56.654 43 55 43Z" fill="white"/>
<path d="M57 31C55.346 31 54 29.654 54 28C54 26.346 55.346 25 57 25C58.654 25 60 26.346 60 28C60 29.654 58.654 31 57 31ZM57 27C56.449 27 56 27.449 56 28C56 28.551 56.449 29 57 29C57.551 29 58 28.551 58 28C58 27.449 57.551 27 57 27Z" fill="white"/>
<path d="M58 61H56V54C56 53.449 55.551 53 55 53H51V51H55C56.654 51 58 52.346 58 54V61Z" fill="white"/>
<path d="M57 69C55.346 69 54 67.654 54 66C54 64.346 55.346 63 57 63C58.654 63 60 64.346 60 66C60 67.654 58.654 69 57 69ZM57 65C56.449 65 56 65.449 56 66C56 66.551 56.449 67 57 67C57.551 67 58 66.551 58 66C58 65.449 57.551 65 57 65Z" fill="white"/>
<path d="M61 48H51V46H61C62.654 46 64 44.654 64 43V40H66V43C66 45.757 63.757 48 61 48Z" fill="white"/>
<path d="M65 38C63.346 38 62 36.654 62 35C62 33.346 63.346 32 65 32C66.654 32 68 33.346 68 35C68 36.654 66.654 38 65 38ZM65 34C64.449 34 64 34.449 64 35C64 35.551 64.449 36 65 36C65.551 36 66 35.551 66 35C66 34.449 65.551 34 65 34Z" fill="white"/>
<path d="M66 51H64V61H66V51Z" fill="white"/>
<path d="M71 37H69V53H71V37Z" fill="white"/>
<path d="M71 55H69V57H71V55Z" fill="white"/>
<path d="M52.782 16.367C51.332 16.144 49.862 16.561 48.748 17.515C48.179 18.002 47.737 18.604 47.439 19.271C45.98 17.292 43.641 16 41 16C38.044 16 35.464 17.615 34.079 20.006C34.053 20.005 34.026 20 34 20C29.654 20 26.114 23.485 26.01 27.806C24.623 28.608 23.589 29.946 23.188 31.537C20.114 32.701 18 35.678 18 39C18 40.235 18.29 41.452 18.842 42.559C17.649 44.123 17 46.029 17 48C17 50.306 17.891 52.511 19.461 54.175C19.166 55.064 19 56.013 19 57C19 61.444 22.26 65.214 26.621 65.886C27.446 67.719 29.038 69.137 31.036 69.715C31.403 74.344 35.279 78 40 78C42.984 78 45.626 76.534 47.264 74.291C47.549 75.133 48.056 75.893 48.747 76.485C49.664 77.27 50.821 77.693 52.01 77.693C52.266 77.693 52.524 77.673 52.781 77.633C67.974 75.281 79 62.397 79 47C79 31.603 67.974 18.719 52.782 16.367ZM40 76C36.14 76 33 72.86 33 69C33 65.14 36.14 62 40 62V60C35.508 60 31.784 63.313 31.117 67.621C29.265 66.872 28 65.078 28 63C28 60.243 30.243 58 33 58V56C29.14 56 26 59.14 26 63C26 63.242 26.015 63.48 26.039 63.716C23.103 62.861 21 60.148 21 57C21 53.14 24.14 50 28 50V48C24.804 48 21.999 49.68 20.402 52.197C19.501 50.995 19 49.525 19 48C19 46.282 19.636 44.626 20.792 43.336L21.291 42.779L20.898 42.143C20.311 41.193 20 40.106 20 39C20 36.821 21.215 34.842 23.058 33.792C23.448 36.727 25.961 39 29 39V37C26.794 37 25 35.206 25 33C25 30.794 26.794 29 29 29C31.206 29 33 30.794 33 33H35C35 29.691 32.309 27 29 27C28.686 27 28.38 27.032 28.078 27.078C28.486 24.451 30.599 22.385 33.25 22.052C33.093 22.677 33 23.327 33 24C33 28.411 36.589 32 41 32V30C37.691 30 35 27.309 35 24C35 20.691 37.691 18 41 18C44.309 18 47 20.691 47 24V69C47 72.86 43.86 76 40 76ZM52.475 75.657C51.604 75.795 50.719 75.54 50.049 74.967C49.382 74.395 49 73.564 49 72.688V21.312C49 20.435 49.382 19.604 50.049 19.033C50.6 18.561 51.297 18.307 52.012 18.307C52.166 18.307 52.321 18.319 52.476 18.343C66.457 20.508 77 32.828 77 47C77 61.172 66.457 73.492 52.475 75.657Z" fill="white"/>
<path d="M43 23H41V25H43V23Z" fill="white"/>
<path d="M38 46H36V48H38V46Z" fill="white"/>
<path d="M44 68H42V70H44V68Z" fill="white"/>
<path d="M27 53H25V55H27V53Z" fill="white"/>
<path d="M45 39H43V41H45V39Z" fill="white"/>
<path d="M26 41H24V43H26V41Z" fill="white"/>
</svg>
